<svg width="711" height="654" viewBox="0 0 711 654" fill="none" xmlns="http://www.w3.org/2000/svg">
<path d="M420.5 345L415 280V278L291.5 337L286.5 409.5L420.5 345Z" fill="#FFEDCF"/>
<path d="M278.5 488L285 418L422.5 352L427.5 418.5L278.5 488Z" fill="#E1000F"/>
<path d="M435 500L440.5 565.5L353.5 608.5H266L267.5 580L435 500Z" fill="#E1000F"/>
<path d="M429 427L434.5 491L269.5 570L276 498L429 427Z" fill="#FFEDCF"/>
<path d="M415 270L409 205.5L408.5 203.5L299 255L294 328L415 270Z" fill="#D9D9D9"/>
<path d="M415 270L409 205.5L408.5 203.5L299 255L294 328L415 270Z" fill="#E1000F"/>
<path d="M408 195.34L405.981 173.484L405.72 171H308.066L301 247L408 195.34Z" fill="#FFEDCF"/>
<path d="M253 75.7934L354.454 13L458 75.7934H377.309C386.764 92.0701 386.689 101.345 376.418 116.986L373.281 120H354.454H337.719L334.059 116.986C322.54 103.084 321.306 94.0466 333.072 75.7934H253Z" fill="#838788"/>
<circle cx="355" cy="95" r="20" fill="#FED348"/>
<path d="M318 120V75H306V120H318Z" fill="#838788"/>
<path d="M517 654V628H193V654H517Z" fill="#838788"/>
<path d="M415 134V118H294V134H415Z" fill="#838788"/>
<path d="M431 161V132H280V161H431Z" fill="#838788"/>
<path d="M403 120V75H391V120H403Z" fill="#838788"/>
<path d="M444.5 608L442 574.5V572.5L373 608H444.5Z" fill="#FFEDCF"/>
</svg>
